<?xml version="1.0" standalone="no"?>
<!DOCTYPE svg PUBLIC "-//W3C//DTD SVG 20010904//EN"
 "http://www.w3.org/TR/2001/REC-SVG-20010904/DTD/svg10.dtd">
<svg version="1.0" xmlns="http://www.w3.org/2000/svg"
 width="787.000000pt" height="787.000000pt" viewBox="0 0 787.000000 787.000000"
 preserveAspectRatio="xMidYMid meet">
<metadata>
Created by potrace 1.14, written by Peter Selinger 2001-2017
</metadata>
<g transform="translate(0.000000,787.000000) scale(0.100000,-0.100000)"
fill="#000000" stroke="none">
<path d="M2920 7656 c-63 -18 -106 -42 -171 -95 -83 -68 -130 -148 -154 -263
-4 -21 -11 -28 -28 -28 -36 0 -122 -47 -169 -93 l-43 -42 -75 3 c-41 2 -99 -2
-128 -9 -116 -27 -249 -158 -276 -271 -5 -22 -14 -28 -44 -34 -64 -11 -169
-73 -231 -136 -101 -102 -141 -200 -141 -343 0 -92 17 -165 54 -231 15 -26 25
-48 24 -48 -59 -31 -115 -82 -217 -197 l-41 -46 0 -120 c0 -74 5 -138 14 -169
8 -27 24 -148 36 -269 12 -121 23 -227 25 -235 2 -8 18 -154 35 -325 36 -373
48 -491 60 -610 11 -98 38 -379 100 -1010 22 -225 44 -450 49 -500 27 -240 64
-646 59 -650 -3 -3 -25 4 -49 15 -34 15 -66 20 -139 20 -85 0 -101 -3 -152
-29 -117 -59 -192 -170 -204 -297 l-7 -72 -61 -12 c-118 -23 -238 -116 -299
-232 -31 -60 -32 -66 -32 -182 0 -112 2 -125 28 -177 29 -59 116 -155 177
-195 61 -40 143 -57 246 -52 l92 5 38 -40 c49 -51 139 -110 213 -139 49 -19
74 -22 196 -22 107 0 150 4 184 17 40 16 183 17 1890 17 1436 1 1849 3 1861
13 30 23 50 62 50 97 0 34 2 36 48 49 42 11 48 11 57 -5 17 -30 98 -105 141
-130 62 -36 131 -54 214 -54 128 0 226 42 309 132 21 23 34 28 76 28 112 1
271 55 359 123 130 101 226 243 262 386 23 93 16 303 -14 388 -33 95 -83 171
-166 255 -141 143 -266 199 -451 201 -60 1 -135 0 -165 -2 -30 -2 -92 -1 -137
4 -71 7 -85 11 -98 31 -40 62 -146 152 -211 180 l-66 29 6 70 c9 89 60 617 86
880 11 110 33 340 50 510 17 171 39 400 50 510 11 110 33 340 50 510 16 171
34 353 40 405 25 231 60 600 60 627 0 16 -9 39 -20 51 -16 17 -20 35 -20 88 0
40 -6 79 -16 100 -21 44 -115 138 -154 154 -28 12 -30 16 -30 64 0 66 -20 141
-55 205 -41 74 -151 182 -221 216 l-59 28 4 81 c4 94 -11 173 -47 238 -38 72
-145 173 -221 211 -63 31 -70 32 -201 34 -128 1 -135 2 -150 24 -37 57 -123
121 -185 138 -22 6 -78 11 -124 11 -74 0 -90 -3 -142 -31 -32 -18 -73 -45 -89
-61 -45 -42 -97 -129 -106 -173 l-7 -39 -16 24 c-15 23 -49 57 -122 123 -32
28 -129 83 -194 108 -62 25 -122 31 -265 28 -85 -1 -189 -2 -231 -1 l-76 2
-28 42 c-30 45 -110 122 -156 150 -88 54 -235 73 -339 44z m1047 -6868 c-1
-46 -3 -11 -3 77 0 88 2 125 3 83 2 -42 2 -114 0 -160z"/>
<path d="M2102 3 c1004 -2 2651 -2 3660 0 1008 1 186 2 -1827 2 -2013 0 -2838
-1 -1833 -2z"/>
</g>
</svg>
